<?xml version="1.0" encoding="UTF-8" standalone="no" ?>
<!DOCTYPE svg PUBLIC "-//W3C//DTD SVG 1.1//EN" "http://www.w3.org/Graphics/SVG/1.1/DTD/svg11.dtd">
<svg xmlns="http://www.w3.org/2000/svg" xmlns:xlink="http://www.w3.org/1999/xlink" version="1.1" width="1080" height="1080" viewBox="0 0 1080 1080" xml:space="preserve">
<desc>Created with Fabric.js 5.2.4</desc>
<defs>
</defs>
<rect x="0" y="0" width="100%" height="100%" fill="transparent"></rect>
<g transform="matrix(1 0 0 1 540 540)" id="5d80a85c-3673-4eaa-99b4-bc39c7c6c1d0"  >
<rect style="stroke: none; stroke-width: 1; stroke-dasharray: none; stroke-linecap: butt; stroke-dashoffset: 0; stroke-linejoin: miter; stroke-miterlimit: 4; fill: rgb(255,255,255); fill-rule: nonzero; opacity: 1; visibility: hidden;" vector-effect="non-scaling-stroke"  x="-540" y="-540" rx="0" ry="0" width="1080" height="1080" />
</g>
<g transform="matrix(1 0 0 1 540 540)" id="3b2ac92c-c5a3-4138-9df4-be0f18ba7cd8"  >
</g>
<g transform="matrix(3.51 0 0 3.51 540 540)"  >
<path style="stroke: rgb(115,115,115); stroke-width: 1; stroke-dasharray: none; stroke-linecap: butt; stroke-dashoffset: 0; stroke-linejoin: miter; stroke-miterlimit: 4; fill: none; fill-rule: nonzero; opacity: 1;"  transform=" translate(-154, -316)" d="M 1 54.5 C 1 24.9528 24.9528 1 54.5 1 L 253.5 1 C 283.047 1 307 24.9528 307 54.5 L 307 577.5 C 307 607.047 283.047 631 253.5 631 L 54.5 631 C 24.9528 631 1 607.047 1 577.5 L 1 54.5 Z" stroke-linecap="round" />
</g>
<g transform="matrix(54 0 0 54 540 540)"  >
<path style="stroke: none; stroke-width: 1; stroke-dasharray: none; stroke-linecap: butt; stroke-dashoffset: 0; stroke-linejoin: miter; stroke-miterlimit: 4; fill: rgb(99,60,255); fill-rule: nonzero; opacity: 1;"  transform=" translate(-10, -7)" d="M 19.6096 6.61953 C 19.5807 6.55625 18.8963 5.03672 17.3846 3.525 C 15.3619 1.50547 12.8127 0.4375 10.0002 0.4375 C 7.18769 0.4375 4.63847 1.50547 2.61815 3.525 C 1.10643 5.03672 0.42206 6.55625 0.39081 6.61953 C 0.337882 6.73953 0.310547 6.86924 0.310547 7.00039 C 0.310547 7.13154 0.337882 7.26125 0.39081 7.38125 C 0.419716 7.44531 1.10409 8.96406 2.61659 10.4758 C 4.63847 12.4953 7.18769 13.5625 10.0002 13.5625 C 12.8127 13.5625 15.3619 12.4953 17.3814 10.4758 C 18.8939 8.96406 19.5783 7.44531 19.6072 7.38125 C 19.6605 7.26142 19.6882 7.13179 19.6887 7.00064 C 19.6891 6.86949 19.6621 6.73969 19.6096 6.61953 Z M 16.0111 9.19766 C 14.3338 10.8492 12.3119 11.6875 10.0002 11.6875 C 7.68847 11.6875 5.66659 10.8492 3.99159 9.19687 C 3.33249 8.54471 2.76553 7.80559 2.30643 7 C 2.76566 6.19474 3.33261 5.45589 3.99159 4.80391 C 5.66737 3.15078 7.68847 2.3125 10.0002 2.3125 C 12.3119 2.3125 14.333 3.15078 16.0088 4.80391 C 16.6678 5.45583 17.2348 6.19469 17.6939 7 C 17.2348 7.80554 16.6678 8.54465 16.0088 9.19687 L 16.0111 9.19766 Z M 10.0002 3.5625 C 9.32031 3.5625 8.65571 3.76411 8.09041 4.14182 C 7.52512 4.51954 7.08453 5.0564 6.82435 5.68453 C 6.56417 6.31265 6.4961 7.00381 6.62874 7.67062 C 6.76137 8.33743 7.08876 8.94994 7.56951 9.43068 C 8.05025 9.91142 8.66275 10.2388 9.32956 10.3714 C 9.99637 10.5041 10.6875 10.436 11.3157 10.1758 C 11.9438 9.91566 12.4806 9.47507 12.8584 8.90977 C 13.2361 8.34448 13.4377 7.67987 13.4377 7 C 13.4367 6.08864 13.0742 5.21489 12.4297 4.57046 C 11.7853 3.92603 10.9115 3.56353 10.0002 3.5625 Z M 10.0002 8.5625 C 9.69115 8.5625 9.38906 8.47086 9.13211 8.29917 C 8.87515 8.12748 8.67488 7.88345 8.55662 7.59794 C 8.43836 7.31243 8.40742 6.99827 8.46771 6.69517 C 8.528 6.39208 8.67681 6.11367 8.89533 5.89515 C 9.11385 5.67663 9.39226 5.52781 9.69536 5.46752 C 9.99845 5.40723 10.3126 5.43818 10.5981 5.55644 C 10.8836 5.6747 11.1277 5.87497 11.2994 6.13192 C 11.471 6.38887 11.5627 6.69097 11.5627 7 C 11.5627 7.4144 11.3981 7.81183 11.105 8.10485 C 10.812 8.39788 10.4146 8.5625 10.0002 8.5625 Z" stroke-linecap="round" />
</g>
</svg>