<?xml version="1.0" encoding="UTF-8" standalone="no" ?>
<!DOCTYPE svg PUBLIC "-//W3C//DTD SVG 1.1//EN" "http://www.w3.org/Graphics/SVG/1.1/DTD/svg11.dtd">
<svg xmlns="http://www.w3.org/2000/svg" xmlns:xlink="http://www.w3.org/1999/xlink" version="1.1" width="1080" height="1080" viewBox="0 0 1080 1080" xml:space="preserve">
<desc>Created with Fabric.js 5.2.4</desc>
<defs>
</defs>
<g transform="matrix(1 0 0 1 540 540)" id="5d80a85c-3673-4eaa-99b4-bc39c7c6c1d0"  >
<rect style="stroke: none; stroke-width: 1; stroke-dasharray: none; stroke-linecap: butt; stroke-dashoffset: 0; stroke-linejoin: miter; stroke-miterlimit: 4; fill: rgb(255,255,255); fill-rule: nonzero; opacity: 1; visibility: hidden;" vector-effect="non-scaling-stroke"  x="-540" y="-540" rx="0" ry="0" width="1080" height="1080" />
</g>
<g transform="matrix(1 0 0 1 540 540)" id="3b2ac92c-c5a3-4138-9df4-be0f18ba7cd8"  >
</g>
<g transform="matrix(3.51 0 0 3.51 540 540)"  >
<path style="stroke: rgb(115,115,115); stroke-width: 1; stroke-dasharray: none; stroke-linecap: butt; stroke-dashoffset: 0; stroke-linejoin: miter; stroke-miterlimit: 4; fill: none; fill-rule: nonzero; opacity: 1;"  transform=" translate(-154, -316)" d="M 1 54.5 C 1 24.9528 24.9528 1 54.5 1 L 253.5 1 C 283.047 1 307 24.9528 307 54.5 L 307 577.5 C 307 607.047 283.047 631 253.5 631 L 54.5 631 C 24.9528 631 1 607.047 1 577.5 L 1 54.5 Z" stroke-linecap="round" />
</g>
</svg>