<?xml version="1.0" encoding="UTF-8" standalone="no" ?>
<!DOCTYPE svg PUBLIC "-//W3C//DTD SVG 1.1//EN" "http://www.w3.org/Graphics/SVG/1.1/DTD/svg11.dtd">
<svg xmlns="http://www.w3.org/2000/svg" xmlns:xlink="http://www.w3.org/1999/xlink" version="1.1" width="1080" height="1080" viewBox="0 0 1080 1080" xml:space="preserve">
<desc>Created with Fabric.js 5.2.4</desc>
<defs>
</defs>
<g transform="matrix(1 0 0 1 540 540)" id="6547f35f-4855-470b-9f19-256229178cba"  >
<rect style="stroke: none; stroke-width: 1; stroke-dasharray: none; stroke-linecap: butt; stroke-dashoffset: 0; stroke-linejoin: miter; stroke-miterlimit: 4; fill: rgb(255,255,255); fill-rule: nonzero; opacity: 1; visibility: hidden;" vector-effect="non-scaling-stroke"  x="-540" y="-540" rx="0" ry="0" width="1080" height="1080" />
</g>
<g transform="matrix(1 0 0 1 540 540)" id="727e7207-6c0b-4146-a674-dcba114b0a37"  >
</g>
<g transform="matrix(3.78 0 0 3.78 540 540)"  >
<path style="stroke: rgb(115,115,115); stroke-width: 1; stroke-dasharray: none; stroke-linecap: butt; stroke-dashoffset: 0; stroke-linejoin: miter; stroke-miterlimit: 4; fill: rgb(255,255,255); fill-rule: nonzero; opacity: 1;"  transform=" translate(-143, -306)" d="M 1 45.5 C 1 20.9233 20.9233 1 45.5 1 L 69.5 1 C 75.8513 1 81 6.14873 81 12.5 C 81 20.5081 87.4919 27 95.5 27 L 190.5 27 C 198.508 27 205 20.5081 205 12.5 C 205 6.14873 210.149 1 216.5 1 L 240.5 1 C 265.077 1 285 20.9233 285 45.5 L 285 566.5 C 285 591.077 265.077 611 240.5 611 L 45.5 611 C 20.9233 611 1 591.077 1 566.5 L 1 45.5 Z" stroke-linecap="round" />
</g>
<g transform="matrix(3.78 0 0 3.78 540 540)"  >
<path style="stroke: rgb(115,115,115); stroke-width: 1; stroke-dasharray: none; stroke-linecap: butt; stroke-dashoffset: 0; stroke-linejoin: miter; stroke-miterlimit: 4; fill: rgb(255,255,255); fill-rule: nonzero; opacity: 1;"  transform=" translate(-143, -306)" d="M 1 45.5 C 1 20.9233 20.9233 1 45.5 1 L 69.5 1 C 75.8513 1 81 6.14873 81 12.5 C 81 20.5081 87.4919 27 95.5 27 L 190.5 27 C 198.508 27 205 20.5081 205 12.5 C 205 6.14873 210.149 1 216.5 1 L 240.5 1 C 265.077 1 285 20.9233 285 45.5 L 285 566.5 C 285 591.077 265.077 611 240.5 611 L 45.5 611 C 20.9233 611 1 591.077 1 566.5 L 1 45.5 Z" stroke-linecap="round" />
</g>
<g transform="matrix(3.78 0 0 3.78 540 540)"  >
<path style="stroke: rgb(115,115,115); stroke-width: 1; stroke-dasharray: none; stroke-linecap: butt; stroke-dashoffset: 0; stroke-linejoin: miter; stroke-miterlimit: 4; fill: rgb(255,255,255); fill-rule: nonzero; opacity: 1;"  transform=" translate(-143, -306)" d="M 1 45.5 C 1 20.9233 20.9233 1 45.5 1 L 69.5 1 C 75.8513 1 81 6.14873 81 12.5 C 81 20.5081 87.4919 27 95.5 27 L 190.5 27 C 198.508 27 205 20.5081 205 12.5 C 205 6.14873 210.149 1 216.5 1 L 240.5 1 C 265.077 1 285 20.9233 285 45.5 L 285 566.5 C 285 591.077 265.077 611 240.5 611 L 45.5 611 C 20.9233 611 1 591.077 1 566.5 L 1 45.5 Z" stroke-linecap="round" />
</g>
<g transform="matrix(NaN NaN NaN NaN 0 0)"  >
<g style=""   >
</g>
</g>
</svg>